<!-- icon666.com - MILLIONS vector ICONS FREE --><svg viewBox="0 0 64 64" xmlns="http://www.w3.org/2000/svg"><g id="about-arrow-direction-button-pointer"><circle cx="32" cy="32" fill="#006df0" r="29"/><path d="m32 3a29 29 0 0 0 -20.506 49.506l41.012-41.012a28.909 28.909 0 0 0 -20.506-8.494z" fill="#2488ff"/><circle cx="32" cy="19" fill="#ffcd00" r="4"/><path d="m32 27h-5a3 3 0 0 0 0 6h1v14a3.993 3.993 0 0 0 3.808 4 4.161 4.161 0 0 0 4.192-4.226v-15.774a4 4 0 0 0 -4-4z" fill="#ffcd00"/><g fill="#231f20"><path d="m32 62a30 30 0 1 1 30-30 30.034 30.034 0 0 1 -30 30zm0-58a28 28 0 1 0 28 28 28.032 28.032 0 0 0 -28-28z"/><path d="m30 8.079a1 1 0 0 1 -.078-2c.688-.051 1.388-.079 2.078-.079a1 1 0 0 1 0 2c-.638 0-1.285.025-1.921.076z"/><path d="m7 33a1 1 0 0 1 -1-1 25.952 25.952 0 0 1 19.76-25.243 1 1 0 1 1 .48 1.943 23.958 23.958 0 0 0 -18.24 23.3 1 1 0 0 1 -1 1z"/><path d="m32 24a5 5 0 1 1 5-5 5.006 5.006 0 0 1 -5 5zm0-8a3 3 0 1 0 3 3 3 3 0 0 0 -3-3z"/><path d="m31.988 52c-.076 0-.152 0-.228-.005a5 5 0 0 1 -4.76-4.995v-13a4 4 0 0 1 0-8h5a5.006 5.006 0 0 1 5 5v15.774a5.353 5.353 0 0 1 -1.655 3.852 4.843 4.843 0 0 1 -3.357 1.374zm-4.988-24a2 2 0 0 0 0 4h1a1 1 0 0 1 1 1v14a2.995 2.995 0 0 0 2.856 3 2.828 2.828 0 0 0 2.109-.818 3.341 3.341 0 0 0 1.035-2.408v-15.774a3 3 0 0 0 -3-3z"/></g></g></svg>