<!-- icon666.com - MILLIONS vector ICONS FREE --><svg id="Layer_1" enable-background="new 0 0 512 512" viewBox="0 0 512 512" xmlns="http://www.w3.org/2000/svg"><path d="m136 263.205h107.047c8.836 0 16-7.164 16-16v-107.047c0-8.836-7.164-16-16-16h-107.047c-8.836 0-16 7.164-16 16v107.047c0 8.837 7.163 16 16 16zm16-107.047h75.047v75.047h-75.047zm-32-69.524c0-8.836 7.164-16 16-16h186.666c8.836 0 16 7.164 16 16s-7.164 16-16 16h-186.666c-8.837 0-16-7.163-16-16zm218.666 53.524c0 8.836-7.164 16-16 16h-35.405c-8.836 0-16-7.164-16-16s7.164-16 16-16h35.405c8.836 0 16 7.163 16 16zm0 53.524c0 8.836-7.164 16-16 16h-35.405c-8.836 0-16-7.164-16-16s7.164-16 16-16h35.405c8.836 0 16 7.163 16 16zm0 53.523c0 8.836-7.164 16-16 16h-35.405c-8.836 0-16-7.164-16-16s7.164-16 16-16h35.405c8.836 0 16 7.164 16 16zm-218.666 71.302c0-8.836 7.164-16 16-16h186.666c8.836 0 16 7.164 16 16s-7.164 16-16 16h-186.666c-8.837 0-16-7.163-16-16zm0 53.524c0-8.836 7.164-16 16-16h186.666c8.836 0 16 7.164 16 16s-7.164 16-16 16h-186.666c-8.837 0-16-7.163-16-16zm326.459-318.696h-37.335v-37.335c0-8.836-7.164-16-16-16h-327.583c-8.836 0-16 7.164-16 16v426.665c0 8.836 7.164 16 16 16h37.335v37.335c0 8.836 7.164 16 16 16h327.584c8.836 0 16-7.164 16-16v-426.665c-.001-8.836-7.164-16-16.001-16zm-364.918-21.335h295.583v394.665h-295.583zm348.918 448h-295.584v-21.335h258.249c8.836 0 16-7.164 16-16v-357.33h21.335z"/></svg>