<!-- icon666.com - MILLIONS vector ICONS FREE --><svg id="Layer_1" enable-background="new 0 0 50 50" viewBox="0 0 50 50" xmlns="http://www.w3.org/2000/svg" xmlns:xlink="http://www.w3.org/1999/xlink"><linearGradient id="SVGID_1_" gradientUnits="userSpaceOnUse" x1="26.832" x2="22.686" y1="55.654" y2="-13.727"><stop offset=".0341" stop-color="#69acde"/><stop offset=".5269" stop-color="#6b7fbe"/><stop offset=".957" stop-color="#69acde"/></linearGradient><linearGradient id="SVGID_2_" gradientUnits="userSpaceOnUse" x1="18.992" x2="18.992" y1="14.148" y2="26.548"><stop offset=".1183" stop-color="#f0709b"/><stop offset=".957" stop-color="#ed3982"/></linearGradient><linearGradient id="SVGID_3_" gradientUnits="userSpaceOnUse" x1="36.925" x2="39.677" y1="36.927" y2="36.927"><stop offset=".00000053836" stop-color="#ffcb46"/><stop offset="1" stop-color="#fcb63a"/></linearGradient><g><path d="m44.93 11.6301c-4.31-6.4101-11.63-10.6301-19.93-10.6301-13.25 0-24 10.75-24 24s10.75 24 24 24c1.6 0 3.17-.1599 4.68-.46 11.01-2.1699 19.32-11.8899 19.32-23.54 0-4.95-1.5-9.55-4.07-13.3699z" fill="url(#SVGID_1_)"/><g fill="#fff"><path d="m35.8156 9.1418c.7852 0 1.418.6357 1.418 1.418 0-.7838.6342-1.418 1.4168-1.418-.7797 0-1.4168-.6317-1.4168-1.418 0 .7828-.6365 1.418-1.418 1.418z"/><path d="m42.6257 26.8813c1.0417 0 1.8813.8435 1.8813 1.8813 0-1.0399.8414-1.8813 1.8797-1.8813-1.0345 0-1.8797-.8381-1.8797-1.8813 0 1.0387-.8445 1.8813-1.8813 1.8813z"/><path d="m41.4294 16.484c1.2268 0 2.2155.9933 2.2155 2.2155 0-1.2246.9909-2.2155 2.2137-2.2155-1.2183 0-2.2137-.987-2.2137-2.2155 0 1.2231-.9945 2.2155-2.2155 2.2155z"/></g><g fill="#fff"><path d="m10.4859 11.0442c-.7852 0-1.418.6357-1.418 1.418 0-.7838-.6342-1.418-1.4168-1.418.7797 0 1.4168-.6317 1.4168-1.418 0 .7828.6366 1.418 1.418 1.418z"/><path d="m10.4038 33.0339c-1.0417 0-1.8813.8435-1.8813 1.8813 0-1.0399-.8414-1.8813-1.8797-1.8813 1.0345 0 1.8797-.8381 1.8797-1.8813 0 1.0386.8445 1.8813 1.8813 1.8813z"/><path d="m7.8391 22.333c-1.2268 0-2.2155.9933-2.2155 2.2155 0-1.2246-.9909-2.2155-2.2137-2.2155 1.2183 0 2.2137-.987 2.2137-2.2155-.0001 1.2231.9945 2.2155 2.2155 2.2155z"/></g><g><g><path d="m35.8949 15.3152v27.2773h-20.9928c-1.7118 0-3.0962-1.3844-3.0962-3.0961v-30.2902h17.9799z" fill="#fff"/><path d="m38.8449 39.4963c0 1.709-1.3872 3.0961-3.0962 3.0961h-20.8466c.8545 0 1.6285-.3468 2.1889-.9072s.9072-1.3317.9072-2.1889z" fill="#6e5ea8"/><path d="m35.8949 15.3152h-6.1091v-6.109z" fill="#ececec"/><path d="m14.902 16.442h8.18v8.18h-8.18z" fill="url(#SVGID_2_)"/><g fill="#ececec"><path d="m24.626 17.996h7.573v.913h-7.573z"/><path d="m24.626 20.442h7.573v.913h-7.573z"/><path d="m24.626 22.888h7.573v.913h-7.573z"/><path d="m14.902 25.334h17.297v.913h-17.297z"/><path d="m14.902 27.779h17.297v.913h-17.297z"/><path d="m14.902 30.225h17.297v.913h-17.297z"/><path d="m14.902 32.671h17.297v.913h-17.297z"/><path d="m14.902 35.117h17.297v.913h-17.297z"/></g></g><g><g><path d="m39.2812 16.2215v3.0911h-1.9603v-3.0911c0-.5407.4375-.9822.9781-.9822.5357 0 .9822.4334.9822.9822z" fill="#fff"/><path d="m39.6773 18.1386v17.2222h-2.7527v-17.2222c0-.1568.1279-.2889.2889-.2889h2.1749c.1569.0001.2889.1321.2889.2889z" fill="#3b3e42"/><path d="m39.6773 35.3609-1.3784 3.1323-1.3742-3.1323z" fill="url(#SVGID_3_)"/><path d="m38.7653 37.4367-.4664 1.0565-.4622-1.0565z" fill="#3b3e42"/></g><path d="m36.925 19.802h2.753v1.931h-2.753z" fill="#fff"/><path d="m40.6456 19.5326v5.3225c0 .1634-.1289.2923-.2837.2923-.1634 0-.2923-.1289-.2923-.2923v-5.3225c0-.1547.1289-.2837.2923-.2837.1548 0 .2837.129.2837.2837z" fill="#fff"/><path d="m39.677 19.802h.376v1.931h-.376z" fill="#2c2f33"/></g></g></g></svg>