<!-- icon666.com - MILLIONS vector ICONS FREE --><svg id="Layer_3" viewBox="0 0 24 24" xmlns="http://www.w3.org/2000/svg" data-name="Layer 3"><path d="m2 20v-13a.99974.99974 0 0 1 1-1h1a1 1 0 0 1 0 2v11h16v-10.99951l-2 .0003v.99921a1 1 0 0 1 -2 0v-1.9942l-.001-.0048.001-.00485v-2.99615a1 1 0 0 1 2 0v2.00073l3-.00073a1.00026 1.00026 0 0 1 1 1v13a.99974.99974 0 0 1 -1 1h-18a.99974.99974 0 0 1 -1-1zm5-10a.99974.99974 0 0 0 1-1v-1h6a1 1 0 0 0 0-2h-6v-2a1 1 0 0 0 -2 0v5a.99974.99974 0 0 0 1 1zm1 1a1 1 0 1 0 1 1 1 1 0 0 0 -1-1zm8 0a1 1 0 1 0 1 1 1 1 0 0 0 -1-1zm-4 0a1 1 0 1 0 1 1 1 1 0 0 0 -1-1zm-4 4a1 1 0 1 0 1 1 1 1 0 0 0 -1-1zm8 0a1 1 0 1 0 1 1 1 1 0 0 0 -1-1zm-4 0a1 1 0 1 0 1 1 1 1 0 0 0 -1-1z"/></svg>