<!-- icon666.com - MILLIONS vector ICONS FREE --><svg version="1.1" id="Layer_1" xmlns="http://www.w3.org/2000/svg" xmlns:xlink="http://www.w3.org/1999/xlink" x="0px" y="0px" viewBox="0 0 512 512" style="enable-background:new 0 0 512 512;" xml:space="preserve"><path style="fill:#95A5A5;" d="M512,256C512,114.617,397.383,0,256,0S0,114.617,0,256s114.617,256,256,256S512,397.383,512,256z"/><path style="fill:#FAC176;" d="M211.862,150.069h132.414c4.873,0,8.828,3.955,8.828,8.828v141.241c0,4.873-3.955,8.828-8.828,8.828 H211.862c-4.873,0-8.828-3.955-8.828-8.828V158.897C203.034,154.024,206.989,150.069,211.862,150.069z"/><path style="fill:#F3D55B;" d="M158.897,211.862H291.31c4.873,0,8.828,3.955,8.828,8.828v141.241c0,4.873-3.955,8.828-8.828,8.828 H158.897c-4.873,0-8.828-3.955-8.828-8.828V220.69C150.069,215.817,154.024,211.862,158.897,211.862z"/></svg>