<!-- icon666.com - MILLIONS vector ICONS FREE --><svg id="Layer_1" enable-background="new 0 0 66 66" viewBox="0 0 66 66" xmlns="http://www.w3.org/2000/svg"><g><circle cx="33" cy="33" fill="#886c60" r="32"/><g><path d="m11.51 56.71c5.68 5.15 13.22 8.29 21.49 8.29s15.81-3.14 21.49-8.29z" fill="#646b79"/><path d="m54.06 56.71v-24.26l-21.06-19.16-21.06 19.16v24.26z" fill="#fcfcfd"/><path d="m46.15 11.54h8.34v15.29h-8.34z" fill="#4484c5"/><path d="m60.77 30.41-25.42-23.12c-.67-.61-1.51-.92-2.35-.92s-1.68.31-2.35.92l-25.42 23.12c-1.43 1.3-1.53 3.52-.23 4.94.63.69 1.49 1.1 2.43 1.14.93.04 1.83-.28 2.52-.91l23.05-20.97 23.06 20.98c1.38 1.25 3.7 1.14 4.94-.23 1.3-1.43 1.2-3.65-.23-4.95z" fill="#6eb1e1"/><path d="m16.08 36.5h13.38v20.21h-13.38z" fill="#f8b517"/><path d="m36.65 39.3h10.21v14.6h-10.21z" fill="#4484c5" transform="matrix(0 1 -1 0 88.365 4.846)"/><path d="m41.04 44.18h1.43v16.5h-1.43z" fill="#dededf" transform="matrix(0 -1 1 0 -10.668 94.187)"/><path d="m60.77 30.41-25.42-23.12c-.67-.61-1.51-.92-2.35-.92s-1.68.31-2.35.92l-25.42 23.12c-.9.82-1.27 2.01-1.1 3.13.1-.79.46-1.56 1.1-2.13l25.41-23.12c.67-.61 1.51-.92 2.35-.92s1.68.31 2.35.92l25.42 23.12c.64.58.99 1.34 1.1 2.13.18-1.12-.19-2.31-1.09-3.13z" fill="#fcfcfd" opacity=".2"/></g></g></svg>