<!-- icon666.com - MILLIONS vector ICONS FREE --><svg clip-rule="evenodd" fill-rule="evenodd" image-rendering="optimizeQuality" shape-rendering="geometricPrecision" text-rendering="geometricPrecision" viewBox="0 0 1707 1707" xmlns="http://www.w3.org/2000/svg" xmlns:xlink="http://www.w3.org/1999/xlink"><linearGradient id="id0" gradientUnits="userSpaceOnUse" x1="853.331" x2="853.331" y1="-.004" y2="1706.67"><stop offset="0" stop-color="#66c"/><stop offset=".509804" stop-color="#f0f"/><stop offset="1" stop-color="#f60"/></linearGradient><g id="Layer_x0020_1"><path d="m279 0h1148c154 0 280 126 280 279v1148c0 154-126 280-280 280h-1148c-153 0-279-126-279-280v-1148c0-153 126-279 279-279zm1041 578h164c47 0 85 38 85 85v381c0 46-38 85-85 85h-164c-47 0-85-39-85-85v-381c0-47 38-85 85-85zm164 80h-164c-3 0-5 2-5 5v381c0 2 2 5 5 5h164c3 0 5-3 5-5v-381c0-3-2-5-5-5zm-365 94c0 22 18 40 40 40 23 0 40-18 40-40 0-96-77-174-173-174-95 0-173 78-173 174v203c0 95 78 174 173 174 96 0 173-79 173-174v-116c0-22-17-40-40-40h-153c-22 0-40 18-40 40s18 40 40 40h113v76c0 52-41 94-93 94-51 0-93-42-93-94v-203c0-52 42-94 93-94 52 0 93 42 93 94zm-550-174h164c47 0 85 38 85 85v381c0 46-38 85-85 85h-164c-47 0-85-39-85-85v-381c0-47 38-85 85-85zm164 80h-164c-3 0-5 2-5 5v381c0 2 2 5 5 5h164c3 0 5-3 5-5v-381c0-3-2-5-5-5zm-324 471c22 0 40-18 40-40 0-23-18-40-40-40h-191v-431c0-22-18-40-40-40s-40 18-40 40v471c0 22 18 40 40 40zm1018-1049h-1148c-109 0-199 90-199 199v1148c0 110 90 200 199 200h1148c110 0 200-90 200-200v-1148c0-109-90-199-200-199z" fill="url(#id0)"/></g></svg>