<!-- icon666.com - MILLIONS vector ICONS FREE --><svg id="Icons" viewBox="0 0 60 60" xmlns="http://www.w3.org/2000/svg"><path d="m22.4 51.47a.5.5 0 0 1 -.264-.925l2.064-1.282-3.711 2.137a.5.5 0 0 1 -.518-.854l11.807-7.537-14.535 8.391a.5.5 0 0 1 -.52-.852l16.9-10.9-20.355 11.752a.5.5 0 0 1 -.519-.854l18.465-11.752-21.114 12.189a.5.5 0 0 1 -.516-.856l17.227-10.776-18.788 10.849a.5.5 0 0 1 -.51-.859l9.808-6-10.6 6.122a.5.5 0 0 1 -.521-.863l21.5-13.488-22.621 13.058a.5.5 0 0 1 -.511-.859l11.846-7.239-12.3 7.1a.5.5 0 0 1 -.515-.857l23.159-14.485-23.785 13.733a.5.5 0 0 1 -.515-.857l23.375-14.581-23.718 13.693a.5.5 0 0 1 -.511-.859l15.18-9.28-15.126 8.732a.5.5 0 0 1 -.511-.859l16.081-9.84-15.858 9.155a.5.5 0 0 1 -.514-.857l22.312-13.832-21.888 12.636a.5.5 0 0 1 -.509-.86l5.784-3.493-5.275 3.045a.5.5 0 0 1 -.51-.86l14.941-9.139-14.431 8.331a.5.5 0 0 1 -.509-.86l7.511-4.551-7 4.042a.5.5 0 0 1 -.51-.86l13.905-8.509-13.397 7.73a.5.5 0 0 1 -.509-.859l9.387-5.716-8.878 5.126a.5.5 0 0 1 -.511-.859l13.168-8.081-12.657 7.309a.5.5 0 0 1 -.515-.857l19.582-12.262-19.067 11.008a.5.5 0 0 1 -.51-.86l7.459-4.558-6.949 4.013a.5.5 0 0 1 -.509-.86l3.453-2.1-2.944 1.7a.5.5 0 0 1 -.516-.856l15.787-9.964-15.271 8.814a.5.5 0 0 1 -.52-.854l15.84-10.18-15.32 8.842a.5.5 0 0 1 -.514-.857l6.591-4.119-6.077 3.509a.5.5 0 0 1 -.523-.852l11.906-7.757-11.383 6.567a.5.5 0 0 1 -.516-.856l3.462-2.184-2.946 1.7a.5.5 0 0 1 -.521-.853l5.43-3.5-4.909 2.831a.5.5 0 0 1 -.52-.854l2.387-1.533-1.855 1.071a.5.5 0 0 1 -.535-.844l6.83-4.735-6.062 3.5a.5.5 0 0 1 -.546-.835l5.741-4.233-4.35 2.512a.5.5 0 0 1 -.584-.806l3.544-3.172-.037.024a.5.5 0 0 1 -.5-.867l4.214-2.433a.5.5 0 0 1 .584.8l-3.544 3.176 7.932-4.576a.5.5 0 0 1 .546.835l-5.743 4.23 8.779-5.065a.5.5 0 0 1 .535.844l-6.829 4.731 9.662-5.575a.5.5 0 0 1 .52.854l-2.381 1.525 4.132-2.379a.5.5 0 0 1 .522.853l-5.431 3.5 7.542-4.353a.5.5 0 0 1 .517.856l-3.467 2.184 5.27-3.04a.5.5 0 0 1 .524.852l-11.907 7.759 14.92-8.611a.5.5 0 0 1 .515.857l-6.589 4.114 8.615-4.971a.5.5 0 0 1 .521.853l-15.837 10.178 19.112-11.031a.5.5 0 0 1 .517.856l-15.788 9.961 18.344-10.588a.5.5 0 0 1 .509.86l-3.449 2.1 4.43-2.56a.5.5 0 0 1 .511.859l-7.464 4.56 8.369-4.832a.5.5 0 0 1 .515.857l-19.588 12.266 20.867-12.047a.5.5 0 0 1 .512.859l-13.166 8.078 13.806-7.971a.5.5 0 0 1 .51.86l-9.39 5.716 9.778-5.645a.5.5 0 0 1 .51.859l-13.9 8.512 14.246-8.227a.5.5 0 0 1 .509.861l-7.515 4.551 7.614-4.4a.5.5 0 0 1 .511.86l-14.919 9.132 15.013-8.668a.5.5 0 0 1 .509.861l-5.8 3.506 5.664-3.27a.5.5 0 0 1 .514.858l-22.318 13.832 22.156-12.791a.5.5 0 0 1 .51.859l-16.084 9.843 15.65-9.036a.5.5 0 0 1 .51.86l-15.176 9.279 14.667-8.47a.5.5 0 0 1 .514.857l-23.371 14.58 22.858-13.2a.5.5 0 0 1 .515.857l-23.156 14.489 22.642-13.073a.5.5 0 0 1 .51.86l-11.844 7.237 11.334-6.544a.5.5 0 0 1 .515.857l-21.494 13.488 20.98-12.108a.5.5 0 0 1 .51.859l-9.819 6.01 9.309-5.375a.5.5 0 0 1 .515.857l-17.214 10.765 16.7-9.642a.5.5 0 0 1 .518.855l-18.471 11.757 17.954-10.364a.5.5 0 0 1 .52.853l-16.9 10.9 16.379-9.456a.5.5 0 0 1 .518.854l-11.805 7.535 11.289-6.517a.5.5 0 0 1 .513.857l-2.073 1.288 1.561-.9a.5.5 0 0 1 .516.856l-3.894 2.45 3.378-1.95a.5.5 0 0 1 .519.853l-5.118 3.274 4.6-2.656a.5.5 0 0 1 .528.848l-7.927 5.308 5.743-3.319a.5.5 0 0 1 .544.837l-7.152 5.187 1.4-.806a.5.5 0 0 1 .55.833l-3.015 2.254a.49.49 0 0 1 .11.132.5.5 0 0 1 -.183.682l-4.471 2.581a.5.5 0 0 1 -.549-.833l.778-.582-2.452 1.415a.5.5 0 0 1 -.544-.837l7.15-5.184-10.431 6.021a.5.5 0 0 1 -.529-.847l7.928-5.31-10.665 6.157a.5.5 0 0 1 -.52-.853l5.117-3.273-7.147 4.126a.5.5 0 0 1 -.516-.855l3.893-2.445-5.724 3.3a.5.5 0 0 1 -.245.07z" fill="#754dce"/><g fill="#fff"><path d="m30.022 35.566a.5.5 0 0 1 -.338-.867l1.077-1-.481.277a.5.5 0 0 1 -.7-.65l.546-1.132a.51.51 0 0 1 -.475-.248.5.5 0 0 1 .183-.682l1.166-.664a.5.5 0 0 1 .7.651l-.513 1.049 2.954-1.7a.5.5 0 0 1 .588.8l-1.077 1 2-1.157a.5.5 0 1 1 .5.866l-5.883 3.4a.489.489 0 0 1 -.247.057z"/><path d="m25.5 15.485a.5.5 0 0 1 -.25-.933l1.45-.842a.5.5 0 0 1 .5.867l-1.458.841a.5.5 0 0 1 -.242.067z"/><path d="m23.58 43.47a.5.5 0 0 1 -.282-.913l1.439-.984-3.168 1.827a.5.5 0 0 1 -.543-.838l6.666-4.81-8.634 4.985a.5.5 0 0 1 -.584-.8l3.441-3.083-4.18 2.413a.5.5 0 0 1 -.566-.82l2.717-2.222-2.586 1.491a.5.5 0 0 1 -.551-.832l1.432-1.084-.9.52a.5.5 0 0 1 -.555-.828l2.044-1.579-1.491.86a.5.5 0 0 1 -.554-.829l1.894-1.454-1.342.775a.5.5 0 0 1 -.577-.811l3.955-3.418-3.38 1.951a.5.5 0 0 1 -.557-.827l2.237-1.742-1.682.972a.5.5 0 0 1 -.558-.827l2.285-1.781-1.73 1a.5.5 0 0 1 -.574-.814l3.704-3.143-3.136 1.811a.5.5 0 0 1 -.561-.824l2.62-2.078-2.062 1.191a.5.5 0 0 1 -.555-.829l1.94-1.492-1.386.8a.5.5 0 0 1 -.568-.819l3.28-2.7-2.715 1.568a.5.5 0 0 1 -.573-.815l3.691-3.121-3.121 1.8a.5.5 0 0 1 -.544-.838l2.19-1.579-1.642.948a.5.5 0 0 1 -.545-.837l2.428-1.772-1.885 1.088a.5.5 0 0 1 -.549-.834l3.016-2.248-2.473 1.425a.5.5 0 0 1 -.583-.806l3.333-2.979-4.7 2.715a.5.5 0 0 1 -.58-.808l2.06-1.815-1.5.866a.5.5 0 0 1 -.6-.793l.56-.539a.5.5 0 0 1 -.642-.71l.367-.612a.5.5 0 0 1 -.136-.919l1.171-.67a.5.5 0 0 1 .679.69l-.224.373 1.837-1.063a.5.5 0 0 1 .6.793l-.556.535 2.3-1.328a.5.5 0 0 1 .58.808l-2.064 1.812 4.548-2.62a.5.5 0 0 1 .583.806l-3.334 2.979 5.651-3.271a.5.5 0 0 1 .549.834l-3.011 2.252 2.582-1.491a.5.5 0 0 1 .545.837l-2.427 1.771 1.882-1.086a.5.5 0 0 1 .544.838l-2.391 1.731a.5.5 0 0 1 .42.872l-3.693 3.121 3.118-1.8a.5.5 0 0 1 .567.82l-3.28 2.7 2.713-1.567a.5.5 0 0 1 .554.83l-1.94 1.491 1.386-.8a.5.5 0 0 1 .56.825l-2.619 2.076 2.059-1.189a.5.5 0 0 1 .573.815l-3.709 3.142 3.136-1.81a.5.5 0 0 1 .557.827l-2.285 1.783 1.73-1a.5.5 0 0 1 .557.828l-2.234 1.736 1.677-.968a.5.5 0 0 1 .577.811l-3.955 3.418 3.378-1.951a.5.5 0 0 1 .554.83l-1.9 1.456 1.342-.775a.5.5 0 0 1 .555.828l-2.046 1.58 1.492-.86a.5.5 0 0 1 .55.832l-1.432 1.081.882-.509a.5.5 0 0 1 .566.82l-2.716 2.221 3.015-1.74a.5.5 0 0 1 .584.8l-3.441 3.082 12.991-7.5a.5.5 0 0 1 .543.838l-6.669 4.812 6.087-3.506a.5.5 0 0 1 .532.845l-1.446.988.8-.46a.5.5 0 0 1 .557.826l-3.42 2.675 2.7-1.555a.5.5 0 0 1 .6.781l-2.44 2.452 1.643-.948a.5.5 0 0 1 .6.787l-.58.577a.5.5 0 0 1 .067.9l-2.369 1.368a.5.5 0 0 1 -.6-.787l.062-.062-1.58.912a.5.5 0 0 1 -.605-.785l2.44-2.452-5.606 3.238a.5.5 0 0 1 -.557-.826l3.416-2.674-6.061 3.5a.5.5 0 0 1 -.25.07z"/></g><path d="m48.658 54.384a.5.5 0 0 1 -.334-.872l.576-.512-1.861 1.074a.5.5 0 0 1 -.555-.828l1.131-.875-2.687 1.551a.5.5 0 0 1 -.566-.82l4.056-3.3-6.729 3.884a.5.5 0 0 1 -.54-.839l3.441-2.447-4.85 2.8a.5.5 0 0 1 -.548-.834l6.866-5.1-7.258 4.193a.5.5 0 0 1 -.531-.846l3.456-2.35-3.325 1.92a.5.5 0 0 1 -.528-.849l1.781-1.186-1.6.925a.5.5 0 0 1 -.535-.844l4.275-2.968-4.193 2.413a.5.5 0 0 1 -.542-.839l4.473-3.218-4.401 2.543a.5.5 0 0 1 -.554-.83l4.649-3.556-4.633 2.674a.5.5 0 0 1 -.559-.826l3.638-2.854-3.585 2.069a.5.5 0 0 1 -.572-.816l3.141-2.646-3.095 1.787a.5.5 0 0 1 -.585-.8l2.344-2.118-2.266 1.309a.5.5 0 0 1 -.582-.807l1.037-.921-.845.488a.5.5 0 0 1 -.582-.807l.162-.144a.5.5 0 0 1 -.537-.779l.745-1a.515.515 0 0 1 -.469-.249.5.5 0 0 1 .183-.682l1.8-1.041a.5.5 0 0 1 .651.731l-.67.9 2-1.154a.5.5 0 0 1 .582.807l-.1.092.841-.485a.5.5 0 0 1 .582.807l-1.038.921 2.1-1.211a.5.5 0 0 1 .585.8l-2.347 2.12 3.9-2.251a.5.5 0 0 1 .572.815l-3.142 2.646 4.79-2.764a.5.5 0 0 1 .558.826l-3.638 2.855 5.214-3.01a.5.5 0 0 1 .554.83l-4.648 3.555 6.363-3.672a.5.5 0 0 1 .542.838l-4.471 3.217 5.916-3.415a.5.5 0 0 1 .535.844l-4.277 2.971 4.831-2.789a.5.5 0 0 1 .527.848l-1.777 1.18 1.479-.854a.5.5 0 0 1 .531.846l-3.453 2.345 3.025-1.746a.5.5 0 0 1 .548.834l-6.864 5.095 6.473-3.737a.5.5 0 0 1 .54.84l-3.451 2.454 3.023-1.74a.5.5 0 0 1 .565.82l-4.057 3.3 3.671-2.12a.5.5 0 0 1 .556.828l-1.358 1.051a.5.5 0 0 1 .395.868l-2.949 2.649a.5.5 0 0 1 -.24.531l-1.026.591a.493.493 0 0 1 -.25.066z" fill="#f7bb26"/><path d="m44.755 48.243a.5.5 0 0 1 -.407-.79l1.391-1.953-2.6 1.5a.5.5 0 0 1 -.592-.8l.658-.616-.5.286a.5.5 0 0 1 -.641-.745l.856-1.07a.5.5 0 0 1 -.25-.933l1.93-1.106a.5.5 0 0 1 .64.745l-.741.927 1.968-1.136a.5.5 0 0 1 .592.8l-.661.617.834-.481a.5.5 0 0 1 .658.723l-1.39 1.946.8-.463a.5.5 0 0 1 .5.866l-2.8 1.616a.489.489 0 0 1 -.245.067z" fill="#bf8e22"/><path d="m51.853 59.47a.5.5 0 0 1 -.327-.879l3.086-2.658-4.8 2.774a.5.5 0 0 1 -.541-.839l1.043-.746-1.324.764a.5.5 0 0 1 -.54-.84l1.592-1.136-1.91 1.1a.5.5 0 0 1 -.557-.828l4.01-3.109-3.91 2.257a.5.5 0 0 1 -.549-.833l2.9-2.164a.554.554 0 0 1 -.422-.212.5.5 0 0 1 .086-.669l3.252-2.761a.5.5 0 0 1 .194-.663l1.877-1.084a.5.5 0 0 1 .573.814l-1.031.876 1.895-1.094a.5.5 0 0 1 .549.833l-2.481 1.853 2.928-1.69a.5.5 0 0 1 .557.828l-4.009 3.108 4.56-2.632a.5.5 0 0 1 .54.84l-1.594 1.137 1.223-.706a.5.5 0 0 1 .541.839l-1.046.748.5-.291a.5.5 0 0 1 .576.812l-3.085 2.657 2.509-1.448a.5.5 0 0 1 .592.8l-1.239 1.168.647-.373a.5.5 0 0 1 .645.738l-.588.763a.5.5 0 0 1 .157.923l-1.655.956a.5.5 0 0 1 -.645-.738l.394-.512-2.167 1.247a.5.5 0 0 1 -.592-.8l1.239-1.167-3.406 1.967a.5.5 0 0 1 -.247.07z" fill="#447"/><path d="m.269 34.908c-2.759 22.254 23.654 15.792 37.601 16.592 1.089 3.714 6.179 2.036 9.1 2.753-1.6 5.81 8.11 6.053 11.679 4.559 2.611-2.972 1.383-13.244-4.215-11.638-.713-2.966.941-7.82-2.706-9.071-1.319-12.872 6.19-37.897-13.884-37.603-35.044-.328-39.387-3.728-37.575 34.408zm55.356 13.012c1.039.9 2.45 1.877 2.651 3.342-.408 2.209 1.144 6.009-1.016 7.332-3.129-.14-6.688.924-8.652-2.182-1.81-3.177 3.842-5.424 5.336-7.861.29-.07.53-.25.542-.513a.924.924 0 0 1 1.139-.118zm-3.025-5.82q.215 3 .43 5.992c-1.711 1.69-3.407 3.4-5.107 5.1-2.616-.737-7.122.864-8.536-1.895-1.422-5.159-3.773-10.297-4.578-15.519l7.512 7.511c-2.558 3.365 2.669 6.949 5.292 3.948 2.756-2.767-1.2-6.964-4.279-4.871l-7.627-7.627c4.916.463 9.8 3.01 14.672 4.206 1.711.155 2.354 1.581 2.221 3.155zm-35.541-27.649c-1.425.343-1.469-.962-1.323-2.006 0-.536-.344-2.512.205-2.9 2.755-.088 5.645.059 8.437 0 1.3-.217 2.226.006 1.886 1.538-.23 1.155.828 3.814-1.2 3.363-.294 0-.794.253-.794.6v19.145c-.587 2.8 2.778 2.608 4.611 2.358 2.908-.186 1.207-3.4 2.085-5 .405-.262 1.737 0 2.229 0 1.678-.4 2.485.466 2.093 2.121-3.406 1.3-1.384 4.975-.674 7.429-3.505 2.827-9.033.761-13.293 1.352-7.853.033-1.021-23.938-4.262-28zm27.016 28.772a1.894 1.894 0 0 1 .546-.223c3.236-.441 3.075 4.89.1 4.164-1.508-.288-2.288-2.964-.646-3.941zm.621-.237h.026zm-42.965-21.707c-3.68-27.07 19.647-18.467 37.176-19.779 17.5 1.719 9.745 24.281 11.362 36.138-4.525-1.344-8.947-3.009-13.52-4.13.051-1.113.175-2.509-1.019-2.954-2.04.046-6.244-1.143-6.465 1.879-.167.978.671 3.276-.983 3.023-.977 0-2.45.419-2.547-.822-.026-6.36.018-12.734 0-19.1 2.423.107 2.126-2.624 2-4.313a2.157 2.157 0 0 0 -2.716-2.765c-2.919.681-10.173-1.856-10.755 2.044.073 1.819-.79 5.239 2 5.039.161 8.1-.283 16.261.068 24.339.763 4.262 5.424 3.673 8.624 3.673 3.271-.278 7.247.835 10.063-1.14q1.273 4.048 2.546 8.1c-29.11-.254-38.315 5.699-35.834-29.232z" fill="#262626"/></svg>