<svg id="Layer_1" enable-background="new 0 0 130 130" viewBox="0 0 130 130" xmlns="http://www.w3.org/2000/svg"><g><circle cx="65" cy="65" fill="#d8dcdd" r="64"/><g><path d="m54.9 99.9c0 5.1 4.1 9.2 9.2 9.2s9.2-4.1 9.2-9.2z" fill="#3e4959"/><path d="m73.2 99.9h-18.3c0 .7.1 1.4.2 2.1h17.9c.1-.7.2-1.4.2-2.1z" fill="#303b47"/><path d="m32.9 91.4h62.2v8.5h-62.2z" fill="#f4b147"/><path d="m95.2 91.4c-5.2-6-8-13.6-8-21.5v-8.2c-.1-12.7-10.4-23-23.2-23-12.7 0-23 10.3-23 23v8.2c0 7.9-2.9 15.5-8 21.5z" fill="#f8c962"/><path d="m62 39.7c12.7 0 23 10.3 23 23.1v8.2c0 7.4 2.5 14.6 7.2 20.4h2.9c-5.2-6-8-13.6-8-21.5v-8.2c0-12.7-10.3-23-23.1-23-4.1 0-8 1.1-11.3 3 2.9-1.3 6-2 9.3-2z" fill="#f4b147"/><g><path d="m85.3 63.8c-.7 0-1.5-.1-2.2-.3-3.1-.8-6-3.1-8-6.4-.2-.3-.3-.6-.5-.9-.6.1-1.3.2-2 .3-6.4.2-11-6-11.3-11.7-.1-1.6.2-3 .8-4-.3 0-.6 0-.9 0l-1 .1c-3 .2-6 .4-8.8-.9-.2-.1-.4-.2-.6-.3-2.7-1.2-9.9-4.4-8.1-12.3.9-4 5-5.9 8.2-6.3s5.8 0 7.9 1.2c2.4 1.4 4.1 4.1 5 7.7.1.4.2.8.3 1.1.3-.8.5-1.6.9-2.3 1.6-3.3 4.2-5.8 7.3-6.7 3.6-1.1 7.7.2 9.6 3.1 1.8 2.7 1.7 6.6-.3 9.6-1.7 2.5-4.7 4.2-8.1 4.7-.9.1-1.8.2-2.6.2-.3 0-.6 0-.9.1.3.2.6.5.9.7 1.9 1.8 2.7 4.4 3.3 6.7.5 1.9 1.1 3.8 1.8 5.6 2.1-1 4-2.8 6-4.7 1.4-1.3 2.9-2.8 4.8-3.8 2.3-1.2 4.7-1.4 6.7-.6 2.5 1 4.1 3.7 3.5 6.2-.2.7-.9 1.2-1.7 1-.7-.2-1.2-.9-1-1.7.3-1.1-.6-2.5-1.8-3-1.3-.5-2.9-.3-4.4.5-1.6.8-2.9 2.1-4.2 3.3-2.1 2.1-4.3 4-6.7 5.2.1.1.1.2.2.4 1.7 2.7 3.9 4.5 6.4 5.2 1.5.4 2.9.2 3.8-.4s1.3-2 .8-2.7c-.4-.6-.2-1.5.4-1.9s1.5-.2 1.9.4c1.3 2 .6 4.9-1.5 6.4-1.1.8-2.5 1.2-3.9 1.2zm-19.8-22.8c-.5.3-.9.7-1.1 1.1-.3.6-.5 1.5-.5 2.6.2 4.4 3.8 9.2 8.4 9.1.3 0 .6 0 .8-.1-.8-1.8-1.3-3.7-1.9-5.7s-1.2-4.2-2.5-5.5c-.8-.8-1.9-1.3-3.2-1.5zm-12.3-17.3c-.6 0-1.3 0-2 .1-2.3.3-5.3 1.6-5.9 4.2-1.1 5 2.4 7.4 6.5 9.1.3.1.5.2.7.3 2.2 1 4.7.8 7.5.7l1-.1c.6 0 1.2-.1 1.8-.1-.4-1.4-.7-2.8-1-4.2-.2-1-.4-2.1-.7-3.1-.5-2-1.6-4.7-3.7-6-1.2-.6-2.6-.9-4.2-.9zm21.6.8c-.6 0-1.2.1-1.8.3-2.3.7-4.4 2.6-5.6 5.3-1 2.1-1.5 4.5-1.7 7.8.6-.2 1.2-.4 1.8-.5 1-.2 2.1-.3 3.1-.3.8 0 1.6-.1 2.4-.2 2.7-.4 5-1.7 6.2-3.6 1.4-2 1.5-4.7.3-6.4-.9-1.5-2.8-2.4-4.7-2.4z" fill="#f77656"/></g></g></g></svg>