<!-- icon666.com - MILLIONS vector ICONS FREE --><svg viewBox="0 0 512 512" xmlns="http://www.w3.org/2000/svg"><g id="_12._Paint" data-name="12. Paint"><path d="m320 376a40 40 0 0 0 40 40c10.57 0 15.09 13.5 6.61 19.81a224 224 0 0 1 -357.61-179.81c0-125.22 102.75-226.43 228.52-224 122.17 2.45 220.31 103.37 219.48 225.56-.31 46.75-36.85 78.44-77.3 78.44h-19.7a40 40 0 0 0 -40 40z" fill="#f6f6f6"/><path d="m379.69 312h-19.69a40 40 0 0 0 -38.17 52 40 40 0 0 1 38.17-28h19.69c40.46 0 77-31.69 77.3-78.44 0-5.11-.11-10.17-.42-15.19a77.3 77.3 0 0 1 -76.88 69.63z" fill="#dcdcdc"/><path d="m360.72 416a224 224 0 0 1 -351.4-172 224 224 0 0 0 357.29 191.8c8.28-6.16 4.16-19.17-5.89-19.8z" fill="#dcdcdc"/><path d="m165.7 478.16a8 8 0 1 1 4.6-15.32 216.2 216.2 0 0 0 191.53-33.45 2.76 2.76 0 0 0 1-3.31 2.84 2.84 0 0 0 -2.83-2.08 48 48 0 0 1 0-96h19.69a69.29 69.29 0 0 0 69.31-68.18 214.82 214.82 0 0 0 -61.32-154.36c-84.36-86.7-221.19-86.71-305.86-3.71-107.21 105.09-76.82 284.78 57.63 349.15a8 8 0 0 1 -6.9 14.44c-144-68.94-177.44-261.79-62-375 91.18-89.34 238.15-88.96 328.57 3.97a230.63 230.63 0 0 1 65.88 165.79 85.28 85.28 0 0 1 -85.31 83.9h-19.69a32 32 0 0 0 0 64c18.26 0 26.05 23.31 11.39 34.22-62.12 46.25-139.1 55.96-205.69 35.94z"/><circle cx="304" cy="160" fill="#e9a648" r="64"/><path d="m304 200a64 64 0 0 1 -62.86-52 64 64 0 1 0 125.72 0 64 64 0 0 1 -62.86 52z" fill="#d08840"/><path d="m304 232a72 72 0 1 1 72-72 72.08 72.08 0 0 1 -72 72zm0-128a56 56 0 1 0 56 56 56.06 56.06 0 0 0 -56-56z"/><circle cx="136" cy="184" fill="#b1da7a" r="56"/><path d="m136 216a56 56 0 0 1 -54.7-44 56 56 0 1 0 109.4 0 56 56 0 0 1 -54.7 44z" fill="#96bf5b"/><path d="m136 248a64 64 0 1 1 64-64 64.07 64.07 0 0 1 -64 64zm0-112a48 48 0 1 0 48 48 48.05 48.05 0 0 0 -48-48z"/><circle cx="128" cy="328" fill="#a8edfd" r="48"/><path d="m128 352a48 48 0 0 1 -46.49-36 48 48 0 1 0 93 0 48 48 0 0 1 -46.51 36z" fill="#8bd4de"/><path d="m128 384a56 56 0 1 1 56-56 56.06 56.06 0 0 1 -56 56zm0-96a40 40 0 1 0 40 40 40 40 0 0 0 -40-40z"/><path d="m504 112c0-26.51-48-80-48-80s-48 53.49-48 80a48 48 0 0 0 96 0z" fill="#f6edc8"/><path d="m456 168a56.06 56.06 0 0 1 -56-56c0-28.74 44.92-79.63 50.05-85.34a8 8 0 0 1 11.9 0c5.13 5.71 50.05 56.6 50.05 85.34a56.06 56.06 0 0 1 -56 56zm0-123.8c-17.47 20.73-40 52.55-40 67.8a40 40 0 0 0 80 0c0-15.27-22.53-47.08-40-67.8z"/><circle cx="232" cy="400" fill="#cd4f5f" r="40"/><path d="m232 416a40 40 0 0 1 -38.17-28 40 40 0 1 0 76.34 0 40 40 0 0 1 -38.17 28z" fill="#b24654"/><path d="m232 448a48 48 0 1 1 48-48 48.05 48.05 0 0 1 -48 48zm0-80a32 32 0 1 0 32 32 32 32 0 0 0 -32-32z"/><path d="m408 152h96v32h-96z" fill="#ead590"/><path d="m504 192h-96a8 8 0 0 1 -8-8v-32a8 8 0 0 1 8-8h96a8 8 0 0 1 8 8v32a8 8 0 0 1 -8 8zm-88-16h80v-16h-80z"/><path d="m496 184c-2 37.41-12.7 234.32-14.74 272a25.29 25.29 0 0 1 -50.52 0c-2.04-37.68-12.74-234.59-14.74-272z" fill="#e9a648"/><path d="m496 184-1.3 24h-77.4l-1.3-24z" fill="#d08840"/><path d="m456 488a33.29 33.29 0 0 1 -33.25-31.55l-14.75-272.02a8 8 0 0 1 8-8.43h80a8 8 0 0 1 0 16h-71.55l14.28 263.6a17.29 17.29 0 0 0 34.54 0l13-240a8 8 0 1 1 16 .86l-13 240a33.29 33.29 0 0 1 -33.27 31.54z"/><path d="m456 160a8 8 0 0 1 -5.66-2.34 62.22 62.22 0 0 1 -18.34-44.29v-9.37a8 8 0 0 1 16 0v9.37a46.29 46.29 0 0 0 13.66 33 8 8 0 0 1 -5.66 13.63z"/><path d="m456 160a8 8 0 0 1 -5.66-13.66 46.29 46.29 0 0 0 13.66-33v-9.34a8 8 0 0 1 16 0v9.37a62.22 62.22 0 0 1 -18.34 44.29 8 8 0 0 1 -5.66 2.34z"/></g></svg>